:SAMPLES-PER-SECOND 30
:FULLY-SPECIFIED
:DEGREES
1182
root  -62.7467 41.2278 27.6871 -171.412 11.615 -178.894
RightUpLeg  -17.0015 -26.149 -3.35878
RightLeg  26.9102 -6.82124 -3.9738
RightFoot  -5.84382 -0.0734985 0.709481
RightToes  0.000482159 0.542163 -0.142577
Spine  28.5018 3.82206 6.15616
Spine1  6.59211 7.63597 -7.24447
HEad  -13.9685 -32.7935 20.3506
LeftShoulder1  9.03324 -14.261 -44.2808
LeftArm  -10.5207 14.2448 -25.5257
LeftForeArm  38.4758 -42.5973 -7.7385
LeftHand  -0.25398 0.0180481 5.50724
RightShoulder  6.85355 12.4073 37.0554
RightArm  15.7923 22.0683 41.8221
RightForeArm  -12.3412 27.8124 6.63231
RightHand  -9.63384 23.7795 -37.3525
LeftUpLeg  -16.7989 11.262 4.23101
LeftLeg  5.10076 29.4464 -6.95873
LeftFoot  3.49981 -0.690595 5.13641
LeftToes  1.06246e-005 4.65854e-005 -8.18502e-006
1183
root  -62.6445 41.2932 27.6154 -171.85 15.8246 -179.02
RightUpLeg  -16.0511 -28.0071 -5.0255
RightLeg  24.8988 -6.79543 -3.64925
RightFoot  -5.4667 -0.0734072 0.720808
RightToes  0.000482159 0.542163 -0.142577
Spine  27.1899 3.7983 5.01852
Spine1  5.89137 7.2766 -7.59986
HEad  -13.8579 -32.5566 19.9448
LeftShoulder1  8.92985 -14.2332 -43.8198
LeftArm  -11.2021 15.0006 -25.3975
LeftForeArm  38.8145 -42.8334 -7.79173
LeftHand  -0.25398 0.0180481 5.50724
RightShoulder  7.08991 12.4169 38.4635
RightArm  18.4494 17.7565 41.7505
RightForeArm  -12.7194 25.9222 6.17891
RightHand  -9.33124 23.3468 -36.7808
LeftUpLeg  -15.134 10.8127 5.03179
LeftLeg  4.24019 33.7175 -7.10156
LeftFoot  3.59072 -0.620553 4.5671
LeftToes  1.06246e-005 4.65854e-005 -8.18502e-006
1184
root  -62.4644 41.3403 27.5787 -172.396 20.0431 -179.16
RightUpLeg  -15.2208 -30.5948 -6.21882
RightLeg  22.1403 -7.23555 -3.45105
RightFoot  -5.20326 -0.0628305 0.575439
RightToes  0.000482159 0.542163 -0.142577
Spine  25.9534 3.74822 3.83671
Spine1  5.53736 6.80714 -7.38539
HEad  -13.886 -31.5859 19.2618
LeftShoulder1  8.8798 -14.0853 -43.9479
LeftArm  -11.7314 15.2762 -24.9537
LeftForeArm  39.9011 -43.0418 -7.78959
LeftHand  -0.25398 0.0180481 5.50724
RightShoulder  7.1529 12.3463 39.0338
RightArm  19.9573 14.0707 41.6219
RightForeArm  -13.7245 23.3719 5.7958
RightHand  -9.22676 23.1291 -36.6598
LeftUpLeg  -13.4489 11.0873 5.74254
LeftLeg  3.69423 37.3857 -7.09129
LeftFoot  3.75917 -0.488079 3.50939
LeftToes  1.06246e-005 4.65854e-005 -8.18502e-006
1185
root  -62.1911 41.3671 27.5956 -172.885 24.1666 -179.611
RightUpLeg  -15.021 -33.9201 -6.90643
RightLeg  19.2731 -7.8631 -3.23212
RightFoot  -4.85357 -0.0731146 0.748893
RightToes  0.000482159 0.542163 -0.142577
Spine  24.5581 3.78423 2.07957
Spine1  5.49891 6.16855 -6.40253
HEad  -14.1494 -29.8688 18.887
LeftShoulder1  8.76262 -13.7291 -44.28
LeftArm  -12.0058 14.9948 -24.3914
LeftForeArm  42.3823 -43.3022 -7.71804
LeftHand  -0.25398 0.0180481 5.50724
RightShoulder  7.02651 12.1317 38.8532
RightArm  18.425 10.8976 41.4719
RightForeArm  -12.6489 20.7373 6.14837
RightHand  -9.13418 22.9246 -36.5652
LeftUpLeg  -11.8711 11.3082 6.2002
LeftLeg  2.8458 40.8278 -7.28436
LeftFoot  4.0349 -0.363417 2.51039
LeftToes  1.06246e-005 4.65854e-005 -8.18502e-006
1186
root  -61.8284 41.3747 27.6708 -173.432 27.912 179.767
RightUpLeg  -14.8711 -36.2428 -7.52975
RightLeg  16.6504 -10.4893 -2.92606
RightFoot  -4.46493 -0.0752396 0.78511
RightToes  0.000482159 0.542163 -0.142577
Spine  23.489 3.66669 0.399997
Spine1  5.19056 5.41754 -5.45287
HEad  -14.5908 -28.2839 18.7169
LeftShoulder1  8.52101 -13.3179 -44.1014
LeftArm  -11.8022 14.4088 -24.0454
LeftForeArm  45.9042 -43.4674 -7.55625
LeftHand  -0.25398 0.0180481 5.50724
RightShoulder  6.84172 11.7948 38.6469
RightArm  14.4423 7.77426 40.9372
RightForeArm  -10.1303 18.8405 6.8067
RightHand  -8.81554 22.3874 -36.0228
LeftUpLeg  -10.2871 11.3264 6.56777
LeftLeg  1.56047 43.8071 -7.81488
LeftFoot  4.60741 -0.287944 1.85684
LeftToes  1.06246e-005 4.65854e-005 -8.18502e-006
1187
root  -61.3616 41.338 27.8 -173.993 31.1063 179.13
RightUpLeg  -14.0329 -34.7871 -8.9186
RightLeg  14.5952 -17.1219 -2.18958
RightFoot  -4.20844 -0.0553328 0.46312
RightToes  0.000482159 0.542163 -0.142577
Spine  22.6687 3.35248 -0.856922
Spine1  4.606 4.62809 -4.79054
HEad  -15.0155 -26.588 18.3359
LeftShoulder1  8.22003 -12.9958 -43.3351
LeftArm  -11.191 13.7369 -24.0383
LeftForeArm  49.0169 -43.4699 -7.3739
LeftHand  -0.25398 0.0180481 5.50724
RightShoulder  6.71675 11.5018 38.6862
RightArm  10.6128 4.52563 39.8774
RightForeArm  -9.45703 18.0355 7.02348
RightHand  -8.28911 21.4519 -35.1368
LeftUpLeg  -8.79817 11.5288 7.08081
LeftLeg  0.35014 46.4028 -8.54662
LeftFoot  5.31958 -0.172923 0.961545
LeftToes  1.06246e-005 4.65854e-005 -8.18502e-006
1188
root  -60.7796 41.2439 27.9794 -174.526 33.7731 178.318
RightUpLeg  -13.4611 -32.9027 -9.94659
RightLeg  13.4551 -22.5155 -1.57613
RightFoot  -3.85345 -0.0757043 0.746514
RightToes  0.000482159 0.542163 -0.142577
Spine  21.5219 2.95404 -2.0904
Spine1  4.31886 3.76396 -3.94205
HEad  -15.2211 -24.5487 16.9814
LeftShoulder1  7.9638 -12.7507 -42.5733
LeftArm  -10.7838 13.0211 -24.2259
LeftForeArm  50.8352 -43.4891 -7.27604
LeftHand  -0.25398 0.0180481 5.50724
RightShoulder  6.6153 11.2936 38.633
RightArm  7.48003 1.58264 38.5229
RightForeArm  -10.5974 17.8128 7.03577
RightHand  -7.83845 20.538 -34.4644
LeftUpLeg  -7.57409 11.7742 7.57214
LeftLeg  -0.636192 48.9228 -9.22989
LeftFoot  5.78791 0.00739294 -0.285046
LeftToes  1.06246e-005 4.65854e-005 -8.18502e-006
1189
root  -60.093 41.1201 28.2088 -175.117 36.1626 177.246
RightUpLeg  -14.0846 -33.7325 -9.65526
RightLeg  13.7557 -21.9999 -1.78967
RightFoot  -3.16842 -0.174815 2.13511
RightToes  0.000482159 0.542163 -0.142577
Spine  20.0188 2.55896 -3.38067
Spine1  4.43995 2.89258 -2.83071
HEad  -15.0673 -22.4489 14.8066
LeftShoulder1  7.82794 -12.5714 -42.2955
LeftArm  -11.1512 12.3371 -24.4162
LeftForeArm  51.8505 -43.6834 -7.27914
LeftHand  -0.25398 0.0180481 5.50724
RightShoulder  6.44595 11.0213 38.3189
RightArm  4.86964 -0.661988 37.2104
RightForeArm  -11.5557 17.5602 7.05911
RightHand  -7.69394 20.149 -34.3554
LeftUpLeg  -6.54601 11.5983 7.83252
LeftLeg  -1.71325 51.1386 -9.64704
LeftFoot  6.20969 0.149049 -1.21169
LeftToes  1.06246e-005 4.65854e-005 -8.18502e-006
1190
root  -59.3151 41.0068 28.4775 -175.827 38.7529 176.475
RightUpLeg  -15.5027 -35.9834 -7.95156
RightLeg  15.1214 -16.8531 -2.59737
RightFoot  -2.67449 -0.268235 3.31091
RightToes  0.000482159 0.542163 -0.142577
Spine  18.8204 2.21209 -3.85402
Spine1  4.52646 2.31799 -2.17515
HEad  -14.5911 -21.0132 12.9515
LeftShoulder1  7.81186 -12.5172 -42.3549
LeftArm  -12.2052 11.9655 -24.6427
LeftForeArm  52.4987 -44.0445 -7.35524
LeftHand  -0.25398 0.0180481 5.50724
RightShoulder  6.2583 10.705 38.0008
RightArm  2.43338 -2.26112 36.0841
RightForeArm  -10.9703 16.8595 7.18018
RightHand  -7.77772 20.2497 -34.5749
LeftUpLeg  -5.18612 11.4992 8.52824
LeftLeg  -2.47149 52.9532 -9.64493
LeftFoot  7.0622 0.323462 -2.25023
LeftToes  1.06246e-005 4.65854e-005 -8.18502e-006
1191
root  -58.4376 40.9219 28.7637 -176.452 41.9272 176.653
RightUpLeg  -16.3087 -36.1529 -5.66322
RightLeg  16.5397 -12.0938 -3.13599
RightFoot  -3.24004 -0.234523 2.97709
RightToes  0.000482159 0.542163 -0.142577
Spine  18.0362 1.96871 -3.02281
Spine1  4.5604 2.18448 -2.21705
HEad  -13.6009 -20.1183 11.7987
LeftShoulder1  7.80206 -12.5128 -42.3101
LeftArm  -13.3856 12.2244 -25.0748
LeftForeArm  52.1748 -44.5412 -7.53045
LeftHand  -0.25398 0.0180481 5.50724
RightShoulder  6.18302 10.5723 37.8857
RightArm  -0.0485939 -3.28173 35.1317
RightForeArm  -8.90559 15.3047 7.52943
RightHand  -7.80974 20.3342 -34.6004
LeftUpLeg  -3.09312 12.6255 10.6251
LeftLeg  -1.82539 54.8422 -9.15841
LeftFoot  7.73958 0.702942 -4.4737
LeftToes  1.06246e-005 4.65854e-005 -8.18502e-006
1192
root  -57.4581 40.8564 29.0497 -176.855 45.3257 177.494
RightUpLeg  -15.6719 -34.1155 -3.83296
RightLeg  17.4512 -9.88576 -3.09374
RightFoot  -5.00324 -0.136356 1.83874
RightToes  0.000482159 0.542163 -0.142577
Spine  17.0531 1.72834 -1.77347
Spine1  4.92591 2.0981 -2.21458
HEad  -11.8396 -19.1694 10.5759
LeftShoulder1  7.68074 -12.3546 -42.0498
LeftArm  -14.1905 13.124 -25.6643
LeftForeArm  50.2855 -45.0717 -7.8107
LeftHand  -0.25398 0.0180481 5.50724
RightShoulder  6.17061 10.5419 37.892
RightArm  -2.17224 -3.5526 34.3589
RightForeArm  -6.14464 12.8027 8.13178
RightHand  -7.59297 19.9453 -34.191
LeftUpLeg  -0.963939 14.6159 13.6604
LeftLeg  1.28034 55.7074 -7.17714
LeftFoot  6.62698 1.00714 -6.64643
LeftToes  1.06246e-005 4.65854e-005 -8.18502e-006
1193
root  -56.4321 40.7992 29.3356 -177.379 48.2215 177.982
RightUpLeg  -14.1755 -32.1229 -2.85211
RightLeg  17.9492 -8.91604 -2.75279
RightFoot  -7.2766 -0.0964024 1.36953
RightToes  0.000482159 0.542163 -0.142577
Spine  15.8866 1.35924 -1.10732
Spine1  5.2744 1.70682 -1.82202
HEad  -9.37096 -17.5708 8.8468
LeftShoulder1  7.49796 -12.0402 -41.8672
LeftArm  -14.3998 14.2609 -26.1668
LeftForeArm  47.4451 -45.2735 -8.04705
LeftHand  -0.25398 0.0180481 5.50724
RightShoulder  6.01671 10.1836 37.9171
RightArm  -3.15133 -3.30415 33.7739
RightForeArm  -3.62365 10.2734 8.68189
RightHand  -7.15671 19.0603 -33.4555
LeftUpLeg  -0.400945 16.0604 15.5289
LeftLeg  6.95998 51.4337 -2.38285
LeftFoot  2.98518 0.755844 -6.05028
LeftToes  1.06246e-005 4.65854e-005 -8.18502e-006
1194
root  -55.4345 40.7521 29.6067 -178.283 50.3733 177.706
RightUpLeg  -12.567 -30.6035 -2.65315
RightLeg  18.4756 -8.38956 -2.41653
RightFoot  -9.37929 -0.0907143 1.58545
RightToes  0.000482159 0.542163 -0.142577
Spine  15.0759 0.971203 -0.898371
Spine1  5.13714 1.1937 -1.20911
HEad  -7.04719 -15.5064 7.14011
LeftShoulder1  7.41402 -11.8279 -41.9779
LeftArm  -14.1223 15.123 -26.6153
LeftForeArm  44.9741 -44.7186 -8.01633
LeftHand  -0.25398 0.0180481 5.50724
RightShoulder  5.70399 9.45088 37.9877
RightArm  -2.96261 -3.45084 33.2003
RightForeArm  -1.97834 9.2395 8.86883
RightHand  -6.63128 18.037 -32.4342
LeftUpLeg  -2.02415 18.5477 14.6409
LeftLeg  12.1629 37.2323 2.61197
LeftFoot  -2.07442 0.23154 -2.62026
LeftToes  1.06246e-005 4.65854e-005 -8.18502e-006
